<svg xmlns="http://www.w3.org/2000/svg" viewBox="0 0 1100 680" role="img" aria-label="概率分布被 argmax 压扁"><style>text{font-family:system-ui,-apple-system,BlinkMacSystemFont,"PingFang SC","Noto Sans SC",sans-serif;fill:#24304a}.s{font-size:20px;fill:#66728b}.m{font-size:25px;font-weight:650}.l{font-size:18px;fill:#66728b}.n{font-size:34px;font-weight:750}.tiny{font-size:17px;fill:#66728b}.axis{stroke:#24304a;stroke-width:2}.grid{stroke:#e7e9f0;stroke-width:1}.dash{stroke-dasharray:7 7}</style><rect width="1100" height="680" rx="28" fill="#fffdf8"/><g transform="translate(0 12) scale(1.25)"><text x="68" y="66" class="m" text-anchor="start">选择前：三种可能</text><text x="604" y="66" class="m" text-anchor="start">选择后：只剩一个</text><text x="70" y="148" class="m" text-anchor="start">access</text><rect x="200" y="125" width="156.6" height="46" rx="23" fill="#a8e0d1"/><text x="510" y="155" class="n" text-anchor="end">0.58</text><text x="70" y="240" class="m" text-anchor="start">billing</text><rect x="200" y="217" width="108" height="46" rx="23" fill="#c9c4f0"/><text x="510" y="247" class="n" text-anchor="end">0.40</text><text x="70" y="332" class="m" text-anchor="start">shipping</text><rect x="200" y="309" width="5.4" height="46" rx="23" fill="#ffe9a8"/><text x="510" y="339" class="n" text-anchor="end">0.02</text><path d="M555 123 h25 l12 16 -12 16 h-25" fill="none" stroke="#ffb4a2" stroke-width="6" stroke-linecap="round" stroke-linejoin="round"/><text x="605" y="148" class="m" text-anchor="start">access</text><rect x="740" y="125" width="110" height="46" rx="23" fill="#a8e0d1"/><text x="845" y="155" class="n" text-anchor="end">1.00</text><text x="605" y="240" class="m" text-anchor="start">billing</text><text x="845" y="247" class="n" text-anchor="end">0</text><text x="605" y="332" class="m" text-anchor="start">shipping</text><text x="845" y="339" class="n" text-anchor="end">0</text><text x="70" y="438" class="s" text-anchor="start">概率分布</text><text x="605" y="438" class="s" text-anchor="start">argmax</text></g></svg>