<svg xmlns="http://www.w3.org/2000/svg" viewBox="0 0 1100 680" role="img" aria-label="一致率与成本的散点图"><style>text{font-family:system-ui,-apple-system,BlinkMacSystemFont,"PingFang SC","Noto Sans SC",sans-serif;fill:#24304a}.s{font-size:20px;fill:#66728b}.m{font-size:25px;font-weight:650}.l{font-size:18px;fill:#66728b}.n{font-size:34px;font-weight:750}.tiny{font-size:17px;fill:#66728b}.axis{stroke:#24304a;stroke-width:2}.grid{stroke:#e7e9f0;stroke-width:1}.dash{stroke-dasharray:7 7}</style><rect width="1100" height="680" rx="28" fill="#fffdf8"/><g transform="translate(0 12) scale(1.25)"><text x="65" y="45" class="s" text-anchor="start">每例成本（美元，对数刻度）</text><text x="815" y="45" class="s" text-anchor="end">一致率</text><line x1="110" y1="349.44444444444446" x2="790" y2="349.44444444444446" stroke="#e7e9f0" stroke-width="1" class=""/><text x="805" y="354.44444444444446" class="tiny" text-anchor="start">55%</text><line x1="110" y1="293.8888888888889" x2="790" y2="293.8888888888889" stroke="#e7e9f0" stroke-width="1" class=""/><text x="805" y="298.8888888888889" class="tiny" text-anchor="start">60%</text><line x1="110" y1="238.33333333333331" x2="790" y2="238.33333333333331" stroke="#e7e9f0" stroke-width="1" class=""/><text x="805" y="243.33333333333331" class="tiny" text-anchor="start">65%</text><line x1="110" y1="182.7777777777778" x2="790" y2="182.7777777777778" stroke="#e7e9f0" stroke-width="1" class=""/><text x="805" y="187.7777777777778" class="tiny" text-anchor="start">70%</text><line x1="110" y1="127.22222222222223" x2="790" y2="127.22222222222223" stroke="#e7e9f0" stroke-width="1" class=""/><text x="805" y="132.22222222222223" class="tiny" text-anchor="start">75%</text><line x1="110" y1="105" x2="110" y2="405" stroke="#e7e9f0" stroke-width="1" class=""/><text x="110" y="429" class="tiny" text-anchor="middle">$0.0001</text><line x1="312.9669530055978" y1="105" x2="312.9669530055978" y2="405" stroke="#e7e9f0" stroke-width="1" class=""/><text x="312.9669530055978" y="429" class="tiny" text-anchor="middle">$0.001</text><line x1="515.9339060111956" y1="105" x2="515.9339060111956" y2="405" stroke="#e7e9f0" stroke-width="1" class=""/><text x="515.9339060111956" y="429" class="tiny" text-anchor="middle">$0.01</text><line x1="718.9008590167933" y1="105" x2="718.9008590167933" y2="405" stroke="#e7e9f0" stroke-width="1" class=""/><text x="718.9008590167933" y="429" class="tiny" text-anchor="middle">$0.1</text><line x1="110" y1="405" x2="790" y2="405" stroke="#24304a" stroke-width="2" class=""/><line x1="110" y1="105" x2="110" y2="405" stroke="#24304a" stroke-width="2" class=""/><circle cx="703.1113041856277" cy="137.22222222222229" r="8" fill="#c9c4f0"/><text x="691.1113041856277" y="117.22222222222229" class="tiny" text-anchor="end">Sol</text><circle cx="768.7818866700898" cy="148.33333333333343" r="8" fill="#c9c4f0"/><text x="768.7818866700898" y="102.33333333333343" class="tiny" text-anchor="middle">Opus 5</text><circle cx="613.9412859631582" cy="206.11111111111103" r="8" fill="#c9c4f0"/><text x="603.9412859631582" y="182.11111111111103" class="tiny" text-anchor="end">Terra</text><circle cx="232.1982819664132" cy="207.22222222222226" r="13" fill="#ffb4a2"/><text x="250.1982819664132" y="212.22222222222226" class="m" text-anchor="start">Jev</text><circle cx="733.0411803686387" cy="207.22222222222226" r="8" fill="#c9c4f0"/><text x="733.0411803686387" y="232.22222222222226" class="tiny" text-anchor="middle">Sonnet 5</text><circle cx="418.20814747354035" cy="218.33333333333337" r="8" fill="#c9c4f0"/><text x="406.20814747354035" y="204.33333333333337" class="tiny" text-anchor="end">Luna</text><circle cx="640.951411199536" cy="232.77777777777777" r="8" fill="#c9c4f0"/><text x="652.951411199536" y="274.77777777777777" class="tiny" text-anchor="start">DS v4 Pro</text><circle cx="469.4244370268394" cy="244.99999999999994" r="8" fill="#c9c4f0"/><text x="459.4244370268394" y="289.99999999999994" class="tiny" text-anchor="end">DS v4 Flash</text><circle cx="574.8013473456086" cy="365" r="8" fill="#c9c4f0"/><text x="586.8013473456086" y="370" class="tiny" text-anchor="start">Haiku 4.5</text><line x1="232.1982819664132" y1="85" x2="733.0411803686387" y2="85" stroke="#ffb4a2" stroke-width="3" class=""/><text x="400" y="70" class="n" text-anchor="middle">293 倍</text><text x="65" y="467" class="tiny" text-anchor="start">来源：TypeSafe 自家评测页；参照答案并非人工标准答案。</text><text x="65" y="496" class="tiny" text-anchor="start">参照：GPT-6 Astra 与 Claude Fable 5.1 高推理回答的平均。</text></g></svg>