<svg xmlns="http://www.w3.org/2000/svg" viewBox="0 0 1100 830" role="img" aria-label="据公开信息反推，非官方架构"><style>text{font-family:system-ui,-apple-system,BlinkMacSystemFont,"PingFang SC","Noto Sans SC",sans-serif;fill:#24304a}.s{font-size:20px;fill:#66728b}.m{font-size:25px;font-weight:650}.l{font-size:18px;fill:#66728b}.n{font-size:34px;font-weight:750}.tiny{font-size:17px;fill:#66728b}.axis{stroke:#24304a;stroke-width:2}.grid{stroke:#e7e9f0;stroke-width:1}.dash{stroke-dasharray:7 7}</style><rect width="1100" height="830" rx="28" fill="#fffdf8"/><g transform="translate(0 12) scale(1.25)"><rect x="40" y="22" width="116" height="37" rx="18" fill="#ffe9a8"/><text x="98" y="48" class="m" text-anchor="middle">推测</text><text x="178" y="48" class="m" text-anchor="start">据公开信息反推，非官方架构</text><defs><marker id="arrow" viewBox="0 0 10 10" refX="9" refY="5" markerWidth="7" markerHeight="7" orient="auto-start-reverse"><path d="M0 0 L10 5 L0 10" fill="none" stroke="#66728b" stroke-width="2"/></marker></defs><rect x="48" y="92" width="290" height="70" rx="28" fill="#a8e0d1"/><text x="193" y="135" class="n" text-anchor="middle">状态</text><path d="M193 162 C193 175 193 175 193 188" fill="none" stroke="#66728b" stroke-width="3" stroke-dasharray="7 6" marker-end="url(#arrow)"/><rect x="48" y="192" width="290" height="78" rx="28" fill="#a8e0d1"/><text x="193" y="223" class="m" text-anchor="middle">双向编码器</text><text x="193" y="252" class="s" text-anchor="middle">只编码一次</text><path d="M193 270 C193 282 193 282 193 295" fill="none" stroke="#66728b" stroke-width="3" stroke-dasharray="7 6" marker-end="url(#arrow)"/><rect x="48" y="299" width="290" height="93" rx="28" fill="#c9c4f0"/><text x="193" y="337" class="m" text-anchor="middle">共享状态表示</text><text x="193" y="368" class="s" text-anchor="middle">供所有查询读取</text><text x="609" y="96" class="m" text-anchor="middle">选项描述 … N</text><rect x="455" y="112" width="270" height="14" rx="7" fill="#ffb4a2"/><rect x="473" y="125" width="270" height="14" rx="7" fill="#ffb4a2"/><rect x="491" y="138" width="270" height="14" rx="7" fill="#ffb4a2"/><path d="M609 155 C609 170 609 170 609 188" fill="none" stroke="#66728b" stroke-width="3" stroke-dasharray="7 6" marker-end="url(#arrow)"/><rect x="469" y="192" width="280" height="55" rx="22" fill="#ffb4a2"/><text x="609" y="227" class="m" text-anchor="middle">选项编码器</text><path d="M609 247 C609 258 609 258 609 270" fill="none" stroke="#66728b" stroke-width="3" stroke-dasharray="7 6" marker-end="url(#arrow)"/><rect x="449" y="279" width="96" height="40" rx="14" fill="#ffe9a8"/><text x="497" y="306" class="m" text-anchor="middle">qᵢ</text><rect x="561" y="279" width="96" height="40" rx="14" fill="#ffe9a8"/><text x="609" y="306" class="m" text-anchor="middle">…</text><rect x="673" y="279" width="96" height="40" rx="14" fill="#ffe9a8"/><text x="721" y="306" class="m" text-anchor="middle">qₙ</text><text x="609" y="350" class="tiny" text-anchor="middle">查询向量 · 各自编码 · 可缓存</text><path d="M338 346 C390 346 359 418 411 418" fill="none" stroke="#66728b" stroke-width="3" stroke-dasharray="7 6" marker-end="url(#arrow)"/><path d="M609 361 C609 402 579 418 550 418" fill="none" stroke="#66728b" stroke-width="3" stroke-dasharray="7 6" marker-end="url(#arrow)"/><rect x="414" y="389" width="134" height="56" rx="25" fill="#c9c4f0"/><text x="481" y="423" class="m" text-anchor="middle">交叉注意力</text><text x="190" y="437" class="s" text-anchor="middle">每个查询对状态打分</text><path d="M481 445 C481 453 481 453 481 461" fill="none" stroke="#66728b" stroke-width="3" stroke-dasharray="7 6" marker-end="url(#arrow)"/><text x="481" y="487" class="m" text-anchor="middle">sᵢ … sₙ</text><path d="M435 478 C355 478 330 540 210 540" fill="none" stroke="#66728b" stroke-width="3" stroke-dasharray="7 6" marker-end="url(#arrow)"/><path d="M481 492 C481 514 481 514 481 538" fill="none" stroke="#66728b" stroke-width="3" stroke-dasharray="7 6" marker-end="url(#arrow)"/><path d="M527 478 C607 478 635 540 753 540" fill="none" stroke="#66728b" stroke-width="3" stroke-dasharray="7 6" marker-end="url(#arrow)"/><rect x="114" y="550" width="192" height="79" rx="25" fill="#a8e0d1"/><text x="210" y="579" class="m" text-anchor="middle">softmax</text><text x="210" y="610" class="m" text-anchor="middle">Choice</text><rect x="385" y="550" width="192" height="79" rx="25" fill="#c9c4f0"/><text x="481" y="579" class="m" text-anchor="middle">有序回归</text><text x="481" y="610" class="m" text-anchor="middle">Score</text><rect x="657" y="550" width="192" height="79" rx="25" fill="#ffb4a2"/><text x="753" y="579" class="m" text-anchor="middle">sigmoid</text><text x="753" y="610" class="m" text-anchor="middle">Noul</text></g></svg>